<svg width="87" height="25" viewBox="0 0 87 25" fill="none" xmlns="http://www.w3.org/2000/svg">
<path d="M9.936 19.56C3.432 19.56 0 14.784 0 9.864C0 4.848 3.528 0.0479994 10.512 0.0479994C13.896 0.0479994 17.112 1.176 19.296 3.36C19.08 4.68 18.24 5.904 16.728 5.904C15.312 5.904 14.664 4.848 14.088 3.672C13.44 2.448 12.48 0.696 10.536 0.696C7.728 0.696 6.048 4.128 6.048 8.016C6.048 14.016 9.384 16.92 12.864 16.92C15.888 16.92 18.72 14.688 19.296 10.728H19.848C19.2 16.704 14.472 19.56 9.936 19.56Z" fill="white"/>
<path d="M24.4549 19.56C22.5109 19.56 20.7829 18.288 20.7829 16.056C20.7829 13.368 23.1829 12.672 25.4389 11.952C27.4069 11.328 29.3029 10.68 29.3029 8.496C29.3029 7.464 28.8469 6.768 28.0069 6.768C26.9029 6.768 26.3269 7.944 25.7509 8.928C25.2469 9.84 24.5749 10.728 23.3029 10.728C22.0069 10.728 21.3829 9.792 21.4069 7.8C23.2069 6.768 25.4869 6.144 27.6949 6.144C31.6309 6.144 34.0789 8.088 34.0789 11.352V14.592C34.0789 16.704 34.2229 17.52 34.7989 19.056H29.4949C29.3029 18.24 29.2069 17.088 29.1829 16.056C28.1509 18.504 26.2069 19.56 24.4549 19.56ZM25.7029 14.664C25.7029 16.176 26.4949 16.8 27.2869 16.8C28.1989 16.8 29.1589 16.032 29.1589 14.28V10.824C28.8949 11.232 28.5829 11.4 27.7189 11.88C26.2789 12.744 25.7029 13.44 25.7029 14.664Z" fill="white"/>
<path d="M36.9264 19.056C37.0704 18.048 37.1184 17.16 37.1184 15.888V3.168C37.1184 1.896 37.0704 1.008 36.9264 0H42.3264C42.1824 1.008 42.1344 1.896 42.1344 3.168V15.888C42.1344 17.16 42.1824 18.048 42.3264 19.056H36.9264Z" fill="white"/>
<path d="M46.2124 24.984C44.3404 24.984 42.9004 24.192 41.9164 23.352C42.1804 21.696 42.9964 20.952 44.1484 20.952C46.2604 20.952 46.2364 23.376 48.1324 23.376C49.1644 23.376 49.9324 22.704 50.7484 20.76L51.4684 19.056H47.8924L45.3004 10.872C44.7004 8.976 44.0524 7.392 43.7404 6.648H50.2684C50.0044 8.952 50.5324 10.8 51.1564 12.792L52.4284 16.728L53.7244 13.632C54.0844 12.792 54.3484 11.952 54.3484 11.352C54.3484 9.864 52.7884 9.408 52.7884 7.872C52.7884 6.768 53.6284 6.168 54.6364 6.168C55.3084 6.168 56.0044 6.432 56.5324 6.96C56.5324 7.56 56.5084 8.04 56.4124 8.448C56.2684 9.384 55.9804 10.032 55.4044 11.376L51.3484 21.072C50.1724 23.832 48.7084 24.984 46.2124 24.984Z" fill="white"/>
<path d="M67.7111 19.56C65.4551 19.56 64.0871 18.096 63.4151 16.56V21.528C63.4151 22.8 63.4631 23.688 63.6071 24.696H58.2071C58.3511 23.688 58.3991 22.8 58.3991 21.528V9.816C58.3991 8.544 58.3511 7.656 58.2071 6.648H63.6071C63.5111 7.368 63.4391 8.04 63.4391 8.832C64.4471 7.056 66.0791 6.144 67.7591 6.144C71.0951 6.144 72.7991 9.48 72.7991 12.84C72.7991 16.2 71.0951 19.56 67.7111 19.56ZM63.4151 14.64C63.5591 16.176 64.3511 17.28 65.3831 17.28C66.8951 17.28 67.6391 15.072 67.6391 12.84C67.6391 10.632 66.8951 8.424 65.3831 8.424C64.6871 8.424 63.9191 8.88 63.4151 9.672V14.64Z" fill="white"/>
<path d="M74.9655 19.056C75.1095 18.048 75.1575 17.16 75.1575 15.888V9.816C75.1575 8.544 75.1095 7.656 74.9655 6.648H80.3655C80.2215 7.656 80.1735 8.544 80.1735 9.816V10.728C81.5655 7.2 82.9575 6.144 85.7655 6.144C86.0295 6.648 86.1735 7.128 86.1735 7.608C86.1735 8.784 85.3095 9.936 83.8935 9.936C82.6455 9.936 81.0615 9.864 80.1735 11.736V15.888C80.1735 17.16 80.2215 18.048 80.3655 19.056H74.9655Z" fill="white"/>
</svg>
